<?xml version="1.0" encoding="iso-8859-1"?>
<!-- Generator: Adobe Illustrator 19.0.0, SVG Export Plug-In . SVG Version: 6.00 Build 0)  -->
<svg version="1.1" id="Capa_1" xmlns="http://www.w3.org/2000/svg" xmlns:xlink="http://www.w3.org/1999/xlink" x="0px" y="0px"
	 viewBox="0 0 512 512" style="enable-background:new 0 0 512 512;" xml:space="preserve">
<g>
	<g>
		<path d="M425.57,258.4c-9.982-39.295-28.293-77.862-55.759-108.367c6.991-10.718,25.728-37.389,48.373-52.948
			c4.973-3.417,7.461-9.251,6.495-15.228c-0.967-5.981-5.172-10.737-10.973-12.414c-9.092-2.627-18.237-3.959-27.183-3.959
			c-8.189,0-16.093,1.116-23.652,3.331c3.972-8.582,9.243-18.931,14.938-27.278c3.235-4.742,3.578-10.843,0.895-15.921
			c-2.704-5.119-7.949-8.298-13.688-8.298c-0.587,0-1.183,0.033-1.771,0.099c-18.161,2.028-49.699,9.057-71.808,33.061
			c-5.357-12.604-14.269-32.135-22.652-43.938C265.875,2.445,261.142,0,256.123,0c-5.019,0-9.752,2.445-12.661,6.541
			c-8.383,11.802-17.295,31.334-22.652,43.938c-22.108-24.004-53.647-31.033-71.807-33.061c-0.589-0.066-1.185-0.099-1.772-0.099
			c-5.739,0-10.984,3.18-13.688,8.298c-2.683,5.079-2.34,11.179,0.895,15.921c5.685,8.334,10.959,18.688,14.934,27.277
			c-7.557-2.214-15.462-3.33-23.649-3.33c-8.946,0-18.091,1.332-27.183,3.959c-5.801,1.676-10.005,6.433-10.973,12.413
			c-0.966,5.977,1.522,11.812,6.495,15.228c22.637,15.553,41.369,42.212,48.365,52.936c-5.913,6.573-11.618,13.793-16.97,21.505
			c-2.362,3.403-1.517,8.076,1.885,10.438c3.403,2.361,8.076,1.517,10.438-1.885c3.307-4.766,6.752-9.328,10.297-13.638
			c0.524,0.874,1.067,1.771,1.622,2.684c4.988,8.199,10.206,16.257,15.604,24.192c1.238,1.819,16.107,22.008,15.833,22.278
			c-18.61,18.373-38.202,35.766-58.768,51.924c-0.614,0.482-1.232,0.954-1.847,1.433c-0.266-0.369-12.888-18.371-14.953-21.456
			c-0.052-0.078-0.102-0.153-0.154-0.23c4.566-14.568,10.258-28.509,16.939-41.484c1.896-3.683,0.448-8.205-3.234-10.102
			c-3.683-1.896-8.205-0.449-10.102,3.234c-7.613,14.783-14.006,30.729-18.999,47.396c-21.679,72.36-16.245,154.352,12.27,224.13
			c10.171,24.888,35.016,41.56,61.891,41.56c0,0,183.779,0,183.888,0c26.869,0,51.728-16.691,61.888-41.552
			c7.327-17.879,13.235-37.536,17.563-58.437C437.977,361.51,438.304,308.524,425.57,258.4z M412.051,266.223
			c1.646,6.896,3.051,13.899,4.209,20.979c-3.025-2.141-12.609-9.124-12.595-9.143c0.32-0.444,5.133-7.17,7.186-10.114
			C411.252,267.371,411.652,266.797,412.051,266.223z M406.831,247.269c-0.068,0.1-0.134,0.199-0.202,0.302
			c-2.651,3.96-12.604,18.202-14.904,21.381c-0.613-0.478-28.524-23.235-41.226-34.877c-6.584-6.033-13.044-12.196-19.389-18.48
			c1.064-1.431,2.102-2.844,3.127-4.246c7.26-9.931,14.247-20.064,20.908-30.406c3.084-4.789,6.099-9.623,9.029-14.508
			C382.525,188.697,397.151,216.383,406.831,247.269z M201.192,361.357c-0.484-0.464-6.864-6.966-7.041-6.838
			c1.615-1.233,21.522-17.052,29.635-23.995c11.076-9.477,21.873-19.295,32.337-29.445c0.675,0.655,1.362,1.297,2.04,1.949
			c15.781,15.177,32.265,29.625,49.399,43.257c0.822,0.654,10.306,8.457,10.533,8.234c-0.17,0.168-0.337,0.337-0.508,0.505
			c-7.205,7.081-14.562,14.01-22.061,20.779c-8.125,7.328-16.426,14.459-24.891,21.393c-4.504,3.689-9.848,7.025-13.956,11.134
			c-0.186,0.144-0.371,0.284-0.557,0.427c-0.184-0.143-0.369-0.282-0.553-0.425C236.627,393.655,218.504,377.922,201.192,361.357z
			 M243.718,418.118c-0.227,0.167-40.913,28.264-62.19,40.274c-3.21,1.813-6.438,3.594-9.68,5.349
			c-0.111,0.06-0.221,0.118-0.333,0.178c-0.602,0.299-5.961-4.961-6.443-5.369c-18.285-15.481-35.798-31.872-52.395-49.152
			c-0.302-0.315-0.598-0.635-0.9-0.95c0.227-0.126,0.453-0.258,0.68-0.384c3.071-1.707,6.13-3.437,9.174-5.193
			c20.713-11.95,40.778-25.005,60.106-39.086c0.084-0.061,0.169-0.121,0.253-0.182c0.483,0.479,0.976,0.954,1.462,1.432
			c17.869,17.599,36.612,34.279,56.235,49.897C239.999,415.18,243.575,418.222,243.718,418.118z M287.722,191.475
			c7.704,8.603,15.485,17.157,23.54,25.434c-0.666,0.862-11.833,15.232-17.09,21.241c-12.108,14.438-24.806,28.371-38.048,41.777
			c-12.455-12.609-24.48-25.645-35.897-39.204c-1.683-1.987-19.881-23.156-19.241-23.814c4.018-4.128,7.973-8.315,11.888-12.54
			c13.682-14.765,26.752-30.103,39.118-45.987h8.263C269.06,169.69,278.16,180.796,287.722,191.475z M279.421,158.383h72.09
			c-0.006,0.01-0.011,0.019-0.017,0.029c-0.018,0.03-0.037,0.061-0.055,0.091c-9.128,15.254-19.081,29.975-29.56,44.33
			c-0.476,0.65-0.965,1.31-1.449,1.967c-0.286-0.296-0.577-0.587-0.862-0.884C305.527,189.339,292.13,174.134,279.421,158.383z
			 M290.091,400.498c12.687-10.27,24.49-21.587,36.165-32.978c1.336-1.303,2.675-2.604,4-3.918c0.081,0.059,0.164,0.117,0.245,0.176
			c2.46,1.794,4.936,3.567,7.42,5.327c19.894,14.086,40.537,27.11,61.847,38.946c0.234,0.13,0.466,0.265,0.7,0.395
			c-0.295,0.309-0.585,0.623-0.881,0.931c-0.92,0.958-1.842,1.912-2.768,2.863c-15.796,16.233-32.359,31.681-49.642,46.321
			c-0.592,0.5-6.034,5.58-6.446,5.357c-0.111-0.06-0.221-0.118-0.332-0.177c-2.717-1.467-5.426-2.962-8.129-4.477
			c-21.829-12.236-42.869-25.867-63.061-40.646c-0.227-0.167-0.453-0.334-0.68-0.501C275.84,412.388,282.875,406.34,290.091,400.498
			z M334.081,338.234c-1.761,1.853-3.539,3.688-5.32,5.522c-0.182,0.165-5.598-4.285-5.856-4.485
			c-17.763-13.804-34.824-28.496-51.135-43.988c-1.667-1.583-3.32-3.18-4.971-4.78c1.684-1.708,3.352-3.432,5.02-5.155
			c8.123-8.387,16.033-16.981,23.741-25.75c8.635-9.847,16.991-19.941,25.057-30.259c0.439-0.562,0.889-1.118,1.326-1.68
			c0.476,0.468,0.96,0.928,1.437,1.395c11.794,11.546,23.983,22.674,36.555,33.367c1.724,1.465,22.732,18.723,22.83,18.594
			c-0.531,0.699-1.054,1.402-1.588,2.1C366.473,302.305,350.733,320.709,334.081,338.234z M102.556,84.722
			c-0.108-0.075-0.231-0.159-0.182-0.47c0.052-0.317,0.206-0.362,0.33-0.398c7.738-2.236,15.483-3.37,23.019-3.37
			c12.281,0,23.762,3.042,34.125,9.042c2.748,1.59,6.199,1.279,8.617-0.778c2.418-2.057,3.279-5.414,2.15-8.381
			c-0.437-1.146-10.838-28.303-23.786-47.284c-0.084-0.123-0.151-0.221-0.023-0.461c0.128-0.243,0.313-0.322,0.532-0.299
			c39.833,4.449,59.675,22.605,69.307,37.053c1.553,2.33,4.276,3.595,7.06,3.295c2.784-0.306,5.165-2.138,6.176-4.75
			c0.139-0.359,14.031-36.112,25.811-52.695c0.052-0.074,0.161-0.228,0.432-0.228c0.271,0,0.38,0.154,0.432,0.228
			c11.779,16.583,25.672,52.336,25.811,52.695c1.01,2.612,3.392,4.444,6.176,4.75c2.781,0.302,5.506-0.964,7.06-3.295
			c9.632-14.448,29.475-32.604,69.308-37.053c0.215-0.023,0.403,0.056,0.531,0.299c0.127,0.241,0.061,0.338-0.023,0.461
			c-12.948,18.981-23.349,46.137-23.786,47.284c-1.129,2.967-0.268,6.324,2.15,8.381c2.418,2.057,5.87,2.369,8.617,0.778
			c10.363-6,21.845-9.042,34.125-9.042c7.536,0,15.281,1.134,23.019,3.37c0.124,0.036,0.278,0.081,0.33,0.398
			c0.05,0.311-0.073,0.395-0.182,0.47c-26.211,18.009-46.773,48.163-53.458,58.66H156.013
			C149.329,132.885,128.767,102.731,102.556,84.722z M162.488,161.288c-0.602-0.99-1.19-1.963-1.754-2.906h72.09
			c-10.063,12.472-20.552,24.595-31.456,36.34c-0.96,1.034-9.736,9.83-9.553,10.077c-2.765-3.75-5.495-7.526-8.18-11.335
			C176.239,182.972,169.168,172.251,162.488,161.288z M134.846,276.773c18.806-14.961,36.824-30.898,54.001-47.702
			c0.483-0.473,0.974-0.938,1.456-1.413c0.437,0.563,0.887,1.119,1.326,1.68c12.847,16.432,26.425,32.257,40.679,47.483
			c1.051,1.122,13.083,13.736,13.141,13.68c-6.138,5.973-12.402,11.819-18.779,17.536c-13.147,11.787-26.714,23.106-40.724,33.853
			c-0.817,0.627-1.64,1.241-2.459,1.864c-0.746-0.768-1.498-1.532-2.24-2.303c-17.8-18.493-34.569-37.963-50.178-58.341
			c-0.533-0.697-1.055-1.398-1.586-2.096C131.279,279.614,133.063,278.192,134.846,276.773z M100.194,266.222
			c0.392,0.564,0.791,1.138,1.199,1.723c2.052,2.938,6.864,9.665,7.188,10.114c0.13,0.211-10.042,7.336-11.142,8.12
			c-0.483,0.344-0.969,0.68-1.453,1.022C97.144,280.121,98.549,273.118,100.194,266.222z M96.282,391.733
			c-2.875-18.257-4.331-36.504-4.331-54.273c0-10.088,0.482-20.226,1.437-30.188c1.484-1.006,2.965-2.029,4.447-3.052
			c0.226-0.155,19.699-14.093,19.692-14.102c0.544,0.716,1.104,1.425,1.651,2.14c16.125,21.044,33.449,41.164,51.858,60.241
			c0.093,0.097,0.187,0.193,0.28,0.29c-0.553,0.401-1.101,0.81-1.656,1.209c-7.416,5.343-14.953,10.526-22.585,15.556
			c-12.663,8.345-41.369,25.087-42.635,25.789c-1.087,0.602-2.179,1.191-3.269,1.786C99.703,395.538,96.457,391.929,96.282,391.733z
			 M130.102,484.238c-6.081-5.292-10.856-11.953-13.931-19.477c-5.708-13.928-10.518-29.022-14.346-44.996
			c0.149,0.155,1.528,1.567,2.065,2.122c16.76,17.294,34.38,33.821,52.844,49.276c0.116,0.098,0.231,0.198,0.347,0.295
			c-0.021,0.011-0.042,0.022-0.064,0.032c-8.703,4.401-17.518,8.585-26.434,12.536C130.423,484.097,130.262,484.167,130.102,484.238
			z M164.179,496.999L164.179,496.999c-6.395,0.001-12.619-1.147-18.455-3.372c0.323-0.15,0.645-0.305,0.967-0.456
			c7.626-3.554,15.175-7.275,22.649-11.138c0.133-0.069,0.268-0.136,0.401-0.205c0.142,0.114,0.289,0.225,0.431,0.338
			c6.086,4.859,19.042,14.662,19.272,14.833H164.179z M297.069,497h-81.892c-10.39-7.208-20.554-14.739-30.528-22.512
			c-0.162-0.126-0.322-0.254-0.484-0.381c0.136-0.075,0.271-0.154,0.407-0.229c12.592-6.984,24.941-14.401,37.023-22.235
			c11.679-7.572,23.112-15.526,34.269-23.849c0.086-0.064,0.174-0.126,0.26-0.19c0.086,0.064,0.174,0.126,0.26,0.19
			c16.007,11.929,32.571,23.064,49.604,33.472c7.136,4.36,14.371,8.562,21.687,12.613c0.136,0.075,0.271,0.154,0.406,0.229
			c-0.174,0.136-0.347,0.274-0.521,0.41c-2.219,1.734-4.446,3.457-6.687,5.161C313.061,485.618,305.13,491.404,297.069,497z
			 M348.067,497H322.8c0.229-0.17,13.156-9.957,19.272-14.833c0.143-0.114,0.289-0.225,0.431-0.338
			c0.135,0.07,0.27,0.137,0.405,0.207c7.784,4.033,15.662,7.897,23.613,11.591C360.686,495.853,354.462,497,348.067,497z
			 M396.072,464.767c-3.072,7.518-7.847,14.178-13.928,19.472c-0.164-0.073-0.327-0.143-0.491-0.216
			c-8.909-3.955-17.721-8.137-26.422-12.531c-0.022-0.011-0.044-0.022-0.066-0.033c0.116-0.098,0.232-0.198,0.348-0.296
			c13.188-11.086,25.96-22.663,38.296-34.688c5.47-5.332,10.867-10.742,16.163-16.247c0.149-0.155,0.301-0.307,0.45-0.462
			C406.593,435.738,401.782,450.833,396.072,464.767z M415.963,391.732c-0.538,0.6-3.335,3.694-4.198,4.64
			c-0.229,0.25-0.461,0.504-0.692,0.756c-22.448-12.258-44.155-25.848-65.011-40.653c-1.718-1.22-3.427-2.45-5.133-3.687
			c0.489-0.506,0.968-1.022,1.456-1.53c11.661-12.145,22.897-24.697,33.653-37.651c6.311-7.6,12.644-15.544,18.681-23.491
			c0.429,0.319,0.863,0.633,1.293,0.951c2.578,1.911,21.366,15.202,22.845,16.205c0.954,9.961,1.437,20.098,1.437,30.188
			C420.294,355.231,418.838,373.477,415.963,391.732z"/>
	</g>
</g>
<g>
</g>
<g>
</g>
<g>
</g>
<g>
</g>
<g>
</g>
<g>
</g>
<g>
</g>
<g>
</g>
<g>
</g>
<g>
</g>
<g>
</g>
<g>
</g>
<g>
</g>
<g>
</g>
<g>
</g>
</svg>
